<svg xmlns="http://www.w3.org/2000/svg" viewBox="0 0 339.21 339.21"><defs><style>.cls-1{fill:#fff;}</style></defs><g id="Layer_2" data-name="Layer 2"><g id="Layer_1-2" data-name="Layer 1"><path class="cls-1" d="M169.61,0C76.09,0,0,76.09,0,169.61s76.09,169.6,169.61,169.6,169.6-76.08,169.6-169.6S263.13,0,169.61,0Zm0,316.21C88.77,316.21,23,250.45,23,169.61S88.77,23,169.61,23s146.6,65.77,146.6,146.61S250.45,316.21,169.61,316.21Zm74-204.64-58.09,58.09,58.09,58.09A11.5,11.5,0,0,1,227.34,244l-58.1-58.09L111.15,244a11.5,11.5,0,0,1-16.26-16.27L153,169.66,94.89,111.57a11.5,11.5,0,0,1,16.26-16.26l58.09,58.09,58.1-58.09a11.5,11.5,0,0,1,16.26,16.26Z"/></g></g></svg>